<?xml version="1.0" standalone="no"?>
<!DOCTYPE svg PUBLIC "-//W3C//DTD SVG 1.1//EN" "http://www.w3.org/Graphics/SVG/1.1/DTD/svg11.dtd">
<svg version="1.1" xmlns="http://www.w3.org/2000/svg">
  <path id="uniE050"
    d="M705 823q175 -1 285 -117t110 -266t-75 -250q-75 -102 -202 -153q-18 -6 -20 -9q-1 -4 23 -142t24 -231t-34 -163t-88 -102q-97 -56 -200 -58q-166 0 -238 82t-73 174q0 92 47 145q47 54 123 54t119 -49t43 -117q0 -67 -33 -105t-81 -52t-48 -25q0 -17 35 -33t83 -16
    q144 0 208 69q65 69 65 203q0 86 -24 215t-27 131q-5 2 -39 -5t-92 -7q-284 0 -440 163t-156 401t184 460q96 121 303 293q16 14 15 39q-23 123 -23 268q0 332 160 510q69 78 103 78t89 -82q106 -160 107 -381q0 -139 -58 -279t-163 -252q-31 -35 -90 -94q-15 -14 -11 -30
    l41 -238q3 -20 9 -24t39 -5zM131 442q0 -172 129 -280t342 -107q38 0 74 6q36 5 40 9t1 16l-82 489q-2 13 -7 15t-26 -2q-74 -20 -119 -72t-45 -114t33 -110t72 -64t39 -27q0 -19 -22 -19t-42 11q-86 29 -137 105t-51 182q0 107 64 195q65 87 173 124q23 8 25 12t0 29
    l-35 209q-4 23 -22 6q-147 -117 -252 -232q-152 -174 -152 -381zM965 334q0 106 -70 182t-172 86q-14 0 -18 -4t0 -20l79 -467q2 -13 8 -15t19 6q154 76 154 232zM770 1954q-82 0 -150 -115t-67 -297q0 -94 8 -151q6 -27 23 -13q55 49 102 97q182 180 182 346q0 63 -27 98
    q-28 35 -71 35z" />
  <path id="uniE05C"
    d="M377 1610v-719q0 -10 14 -10q109 31 146 239q10 41 31 41q22 -1 38 -57q41 -140 172 -139q78 -1 107 75t28 244q0 168 -36 240q-37 72 -136 71q-57 0 -98 -12t-41 -31q0 -10 43 -24q66 -25 66 -107q0 -53 -31 -84t-83 -31t-88 36t-36 110t74 135t211 62q188 0 288 -108
    q100 -109 99 -267q0 -158 -91 -263t-251 -106q-55 0 -101 17q-33 8 -49 -3q-17 -11 -37 -45t-20 -56t20 -54t36 -44q16 -11 50 -3q45 16 101 16q160 0 251 -105t91 -264t-99 -267t-288 -107q-137 0 -211 61t-74 135t36 110t88 36t83 -31t31 -84q0 -82 -66 -106
    q-43 -14 -43 -25q0 -18 41 -30t98 -13q98 0 136 72q37 71 37 239t-29 244t-107 76t-116 -42t-56 -98q-16 -56 -38 -57q-22 0 -31 41q-37 209 -146 240q-14 0 -14 -10v-719q0 -33 -35 -33h-2q-33 0 -33 33v1581q0 33 33 32h2q35 1 35 -32zM35 1642h141q33 0 33 -32v-1581
    q0 -33 -33 -33h-141q-35 0 -35 33v1581q0 32 35 32z" />
  <path id="uniE062"
    d="M1030 1524q39 0 65 -26q25 -26 25 -64t-26 -65q-26 -26 -64 -26t-64 26t-26 65q0 38 26 64t64 26zM1032 1112q39 0 64 -25q24 -25 24 -63t-24 -64q-24 -24 -64 -24t-64 25t-24 63t24 64q24 24 64 24zM375 1222q0 -77 -48 -125t-134 -48t-140 69q-53 70 -53 174
    q0 137 108 252t312 115q205 0 328 -130t122 -345q0 -322 -227 -570q-211 -225 -602 -417q-20 -8 -29 -9q-20 0 -20 21q0 14 24 29q330 190 469 406t140 523q1 201 -61 315t-182 114t-196 -64q-76 -63 -75 -121q0 -31 24 -31l82 13q63 0 111 -47t47 -124z" />
  <path id="uniE069"
    d="M627 385v-770q0 -25 -25 -25h-215q-23 0 -22 25v770q0 25 22 25h215q25 0 25 -25zM262 -385q0 -25 -22 -25h-217q-23 0 -23 25v770q0 25 23 25h217q23 0 22 -25v-770z" />
  <path id="uniE06D"
    d="M383 -1139q65 0 101 38t36 96q0 57 -35 95t-102 38h-240v-267h240zM487 -664q0 123 -155 123h-189v-245h189q155 -1 155 122zM618 -1004q0 -98 -62 -159t-165 -62h-346v770h311q109 0 169 -54t61 -142q0 -117 -107 -166q139 -56 139 -187zM453 -59l-121 350l-125 -350
    h246zM668 -373h-109l-80 230h-297l-82 -230h-104l274 770h127zM635 1165h-254v-686h-98v686h-254v86h606v-86z" />
  <path id="uniE06E"
    d="M348 -685q0 41 -24 65t-68 24h-162v-178h162q45 0 69 24q23 25 23 65zM221 -539q103 0 103 83t-103 83h-127v-166h127zM414 -684q0 -66 -42 -107t-112 -40h-231v516h209q72 0 112 -37q40 -38 39 -104q0 -66 -70 -105q95 -35 95 -123zM301 -53l-80 237l-86 -237h166z
    M446 -262h-73l-54 156h-200l-53 -156h-70l184 516h86zM422 768h-168v-459h-66v459h-170v57h404v-57z" />
  <path id="uniE07D"
    d="M184 406h9q61 0 102 -31t41 -66q0 -54 -51 -84q-27 -22 -3 -62q10 -18 11 -46q0 -78 -76 -107q-27 -10 -69 -10t-96 31q-52 31 -52 74t26 75t47 40q21 7 21 11t-16 21t-15 51q0 68 66 92q20 11 55 11zM276 311q0 66 -79 66q-46 -4 -52 -41q0 -25 31 -55q40 -46 64 -48
    q31 0 36 78zM150 20q25 0 43 18t18 36q0 41 -47 84q-43 32 -55 32q-11 0 -19 -12q-8 -4 -18 -22t-10 -50q0 -31 31 -58q32 -28 57 -28z" />
  <path id="uniE07E"
    d="M291 141q16 0 27 -13q24 -28 -2 -58q-13 -16 -14 -35t46 -19q61 6 98 111q12 35 13 51q0 53 -53 53q-27 -1 -59 -23t-36 -22q-18 0 -18 19t33 109t47 92h106q109 0 109 -7q0 -45 -90 -61l-47 -10l-23 -4q-23 -4 -33 -9l-22 -4q-12 -8 -13 -43q0 -4 7 -4l51 4q23 0 43 -9
    t26 -9l7 -6q36 -28 36 -94t-55 -110t-111 -44t-88 26q-31 26 -31 66t38 53h8zM143 240q0 10 -8 10t-23 -16q-16 -16 -34 -17q-18 0 -19 14q0 3 3 9t70 82t81 88t42 -2q27 -15 52 -2q8 0 8 -9v-6l-143 -340q0 -18 23 -24t22 -13q1 -14 -25 -12t-69 -2t-83 -1t-40 15
    q4 12 33 14t42 29t41 97t28 74q0 2 -1 12z" />

  <path id="uniE260"
    d="M51 1538q31 0 31 -27q0 -242 -12 -462q0 -18 18 -29h8q8 0 37 22q113 58 193 -20q44 -43 45 -109q0 -139 -197 -278q-16 -10 -67 -54t-72 -49q-9 1 -18 13t-15 712l-2 236q2 21 17 33t34 12zM258 885q0 49 -20 73t-46 25q-25 0 -44 -11t-44 -34q-24 -23 -28 -35t-4 -53
    l6 -164q0 -25 16 -24q8 0 17 6q84 51 118 123q29 45 29 94z" />
  <path id="uniE261"
    d="M262 1126q12 0 12 -14v-821q0 -20 -18 -21h-23q-18 0 -18 21v244q0 18 -34 18t-161 -51l-4 -2h-4q-12 0 -12 14v844q0 20 20 20h21q20 0 20 -20v-273q0 -8 32 -8t104 29l28 8q2 2 6 2l25 8q2 2 6 2zM61 883v-168q0 -10 27 -10q27 1 77 23t50 44v168q1 8 -23 8t-78 -24
    t-53 -41z" />
  <path id="uniE262"
    d="M82 852q0 27 -21 29h-6l-35 -17h-4l-4 -2q-12 0 -12 15v116q0 19 26 29t41 18q14 8 15 41v222q0 18 25 18t24 -18v-197q0 -33 21 -33q55 12 102 41q20 14 20 47v213q0 18 25 18t25 -18v-198q0 -23 24 -23l41 14q2 2 10 2t9 -12v-117q-1 -18 -19 -28l-43 -17
    q-23 -6 -22 -47v-151q0 -31 22 -31l43 16q2 2 10 2t9 -12v-117q0 -18 -19 -28q-35 -12 -47 -17q-18 -10 -18 -39v-231q0 -18 -25 -18t-25 18v205q0 8 -6 18t-14 10h-2q-2 -2 -4 -2l-101 -41q-16 -4 -16 -34v-230q-1 -16 -25 -16t-24 16v203q0 8 -8 21t-17 4l-37 -15h-4
    l-4 -2q-12 0 -12 15v116q0 30 63 43q18 10 19 39v162zM127 786q0 -92 4 -99t28 -7q25 0 67 21t49 47t7 103t-6 90t-32 13t-69 -22q-42 -22 -44 -41q-4 -13 -4 -105z" />
  <path id="uniE263"
    d="M233 821q0 -12 78 -55h17q55 0 66 -13q12 -13 12 -61t-14 -63t-62 -15q-47 0 -64 17q-8 4 -8 61q-8 24 -26 50t-31 26q-25 0 -49 -68q-4 -4 -5 -8q0 -49 -13 -63q-13 -15 -59 -15t-67 17q-8 8 -8 60t8 65q12 10 70 10h16q24 8 50 26t26 31q0 6 -76 54q-4 0 -16 -3
    q-49 0 -70 17q-8 12 -8 64t8 61q14 12 64 12t63 -11q12 -11 12 -65q5 -22 23 -50t36 -28t52 78q0 60 10 68t64 8t63 -14q11 -14 11 -62t-16 -63q-16 -14 -58 -15l-21 3q-78 -29 -78 -56z" />
  <path id="uniE264"
    d="M557 885q0 47 -25 82q-14 16 -45 16t-70 -34t-41 -43t-3 -42l6 -176q0 -27 18 -26q4 0 15 6q89 57 118 123q27 47 27 94zM258 886q0 48 -20 72t-51 25q-30 0 -69 -34q-38 -34 -42 -47t-4 -54l6 -160q0 -27 16 -26q8 0 17 6q81 53 120 123q27 47 27 95zM397 1020
    q17 0 27 9q44 38 90 38h10q62 -2 106 -45t44 -109q0 -139 -201 -278q-6 -4 -58 -50t-79 -53q-6 0 -11 6t-14 224q-51 -63 -100 -99t-101 -81t-75 -50q-9 0 -15 8q-12 14 -18 717l-2 236q2 19 17 31t34 12q31 0 31 -27l-12 -460q0 -20 18 -29h8q10 0 22 9q53 38 95 38h10
    q43 0 84 -27l-6 453q2 19 18 31t33 12q31 0 31 -27l-10 -460q0 -23 16 -29h8z" />
  <path id="uniE26A"
    d="M231 1196q0 -4 -4 -8q-69 -62 -99 -148t-30 -221q0 -256 129 -373q4 0 4 -6v-24q0 -2 -6 -2q-225 141 -225 405q0 127 57 236t172 170q2 0 2 -6v-23z" />
  <path id="uniE26B"
    d="M0 1196v23q0 6 2 6q115 -61 172 -170t57 -236q0 -264 -227 -405q-4 0 -4 2v24q0 6 4 6q129 117 129 373q0 133 -31 219t-98 150q-4 4 -4 8z" />
</svg>
